<svg width="114" height="36" viewBox="0 0 114 36" fill="none" xmlns="http://www.w3.org/2000/svg">
<path d="M0 8.18445C0 3.76617 3.58172 0.184448 8 0.184448H106C110.418 0.184448 114 3.76617 114 8.18445V27.1844C114 31.6027 110.418 35.1844 106 35.1844H8C3.58172 35.1844 0 31.6027 0 27.1844V8.18445Z" fill="#334155"/>
<path d="M15.017 23.1844H12.3807L16.3977 11.5481H19.5682L23.5795 23.1844H20.9432L18.0284 14.2072H17.9375L15.017 23.1844ZM14.8523 18.6106H21.0795V20.531H14.8523V18.6106ZM29.1051 23.1844H24.9801V11.5481H29.1392C30.3097 11.5481 31.3172 11.781 32.1619 12.2469C33.0066 12.7091 33.6563 13.3738 34.1108 14.2413C34.5691 15.1087 34.7983 16.1466 34.7983 17.3549C34.7983 18.567 34.5691 19.6087 34.1108 20.4799C33.6563 21.3511 33.0028 22.0197 32.1506 22.4856C31.3021 22.9515 30.2869 23.1844 29.1051 23.1844ZM27.4403 21.0765H29.0028C29.7301 21.0765 30.3419 20.9477 30.8381 20.6901C31.3381 20.4288 31.7131 20.0254 31.9631 19.4799C32.2169 18.9307 32.3438 18.2223 32.3438 17.3549C32.3438 16.4951 32.2169 15.7924 31.9631 15.2469C31.7131 14.7015 31.34 14.3 30.8438 14.0424C30.3475 13.7848 29.7358 13.656 29.0085 13.656H27.4403V21.0765ZM38.0668 11.5481L40.8793 20.389H40.9872L43.8054 11.5481H46.5327L42.5213 23.1844H39.3509L35.3338 11.5481H38.0668ZM57.9702 17.3663C57.9702 18.6352 57.7296 19.7148 57.2486 20.6049C56.7713 21.4951 56.1198 22.175 55.294 22.6447C54.4721 23.1106 53.5478 23.3435 52.5213 23.3435C51.4872 23.3435 50.5592 23.1087 49.7372 22.639C48.9152 22.1693 48.2656 21.4894 47.7884 20.5992C47.3111 19.7091 47.0724 18.6314 47.0724 17.3663C47.0724 16.0973 47.3111 15.0178 47.7884 14.1276C48.2656 13.2375 48.9152 12.5594 49.7372 12.0935C50.5592 11.6238 51.4872 11.389 52.5213 11.389C53.5478 11.389 54.4721 11.6238 55.294 12.0935C56.1198 12.5594 56.7713 13.2375 57.2486 14.1276C57.7296 15.0178 57.9702 16.0973 57.9702 17.3663ZM55.4759 17.3663C55.4759 16.5443 55.3527 15.8511 55.1065 15.2867C54.8641 14.7223 54.5213 14.2943 54.0781 14.0026C53.6349 13.711 53.116 13.5651 52.5213 13.5651C51.9266 13.5651 51.4077 13.711 50.9645 14.0026C50.5213 14.2943 50.1766 14.7223 49.9304 15.2867C49.688 15.8511 49.5668 16.5443 49.5668 17.3663C49.5668 18.1882 49.688 18.8814 49.9304 19.4458C50.1766 20.0102 50.5213 20.4382 50.9645 20.7299C51.4077 21.0216 51.9266 21.1674 52.5213 21.1674C53.116 21.1674 53.6349 21.0216 54.0781 20.7299C54.5213 20.4382 54.8641 20.0102 55.1065 19.4458C55.3527 18.8814 55.4759 18.1882 55.4759 17.3663ZM70.0597 15.6219H67.571C67.5256 15.3 67.4328 15.014 67.2926 14.764C67.1525 14.5102 66.9725 14.2943 66.7528 14.1163C66.5331 13.9382 66.2794 13.8019 65.9915 13.7072C65.7074 13.6125 65.3987 13.5651 65.0653 13.5651C64.4631 13.5651 63.9384 13.7148 63.4915 14.014C63.0445 14.3094 62.6979 14.7413 62.4517 15.3094C62.2055 15.8738 62.0824 16.5594 62.0824 17.3663C62.0824 18.1958 62.2055 18.8928 62.4517 19.4572C62.7017 20.0216 63.0502 20.4477 63.4972 20.7356C63.9441 21.0235 64.4612 21.1674 65.0483 21.1674C65.3778 21.1674 65.6828 21.1238 65.9631 21.0367C66.2472 20.9496 66.4991 20.8227 66.7188 20.656C66.9384 20.4856 67.1203 20.2791 67.2642 20.0367C67.4119 19.7943 67.5142 19.5178 67.571 19.2072L70.0597 19.2185C69.9953 19.7526 69.8343 20.2678 69.5767 20.764C69.3229 21.2564 68.9801 21.6977 68.5483 22.0879C68.1203 22.4742 67.6089 22.781 67.0142 23.0083C66.4233 23.2318 65.7547 23.3435 65.0085 23.3435C63.9706 23.3435 63.0426 23.1087 62.2244 22.639C61.41 22.1693 60.7661 21.4894 60.2926 20.5992C59.8229 19.7091 59.5881 18.6314 59.5881 17.3663C59.5881 16.0973 59.8267 15.0178 60.304 14.1276C60.7813 13.2375 61.429 12.5594 62.2472 12.0935C63.0653 11.6238 63.9858 11.389 65.0085 11.389C65.6828 11.389 66.3078 11.4837 66.8835 11.6731C67.4631 11.8625 67.9763 12.139 68.4233 12.5026C68.8703 12.8625 69.2339 13.3038 69.5142 13.8265C69.7983 14.3492 69.9801 14.9477 70.0597 15.6219ZM73.6108 23.1844H70.9744L74.9915 11.5481H78.1619L82.1733 23.1844H79.5369L76.6222 14.2072H76.5312L73.6108 23.1844ZM73.446 18.6106H79.6733V20.531H73.446V18.6106ZM81.7088 13.5765V11.5481H91.2656V13.5765H87.7031V23.1844H85.2713V13.5765H81.7088ZM92.8395 23.1844V11.5481H100.68V13.5765H95.2997V16.3492H100.277V18.3776H95.2997V21.156H100.703V23.1844H92.8395Z" fill="white"/>
</svg>
