<svg width="899" height="79" viewBox="0 0 899 79" fill="none" xmlns="http://www.w3.org/2000/svg">
<path d="M94.616 26.504C91.224 29.32 87.288 33.992 82.808 40.52H87.512V77H64.376V75.56H29.624V77H6.488V40.52H74.264L69.752 35.72L3.416 39.08C3.288 37.928 3.16 37.032 3.032 36.392C2.2 29.48 1.304 24.072 0.344 20.168L13.208 19.88L23.384 2.984L49.688 4.616L41.336 19.304L56.216 18.92C53.976 15.784 51.704 12.008 49.4 7.592L70.232 3.17599C74.072 8.616 78.136 13.256 82.424 17.096C86.712 20.936 90.776 24.072 94.616 26.504ZM29.624 54.92V59.336H64.376V54.92H29.624ZM145.768 59.528H190.888C190.888 62.344 190.76 64.936 190.504 67.304C190.248 70.824 188.456 73.32 185.128 74.792C181.8 76.2 177 76.904 170.728 76.904H154.312H143.656C143.208 74.792 142.472 72.84 141.448 71.048C133.448 69.96 126.28 69.384 119.944 69.32C122.248 63.432 123.816 58.12 124.648 53.384H164.776V52.232H121.864V48.104L121.288 51.08C118.728 64.072 116.904 72.808 115.816 77.288C107.496 75.24 101.128 73.864 96.712 73.16C98.696 67.656 100.328 62.376 101.608 57.32C102.888 52.2 104.136 46.664 105.352 40.712L111.88 41.768C107.848 39.592 103.08 37.768 97.576 36.296L106.504 21.608C109.576 22.504 113.48 24.104 118.216 26.408L121.384 27.848C121.384 25.864 121.224 23.528 120.904 20.84L124.936 20.648L126.376 19.112C125.224 17.832 123.88 16.456 122.344 14.984L117.928 24.2C111.272 21.128 104.36 18.888 97.192 17.48L105.352 2.12C108.168 2.824 112.296 4.296 117.736 6.536L122.632 8.456L123.976 5.576L125.224 6.72799C126.376 4.936 127.272 3.24 127.912 1.64L135.4 3.752L130.12 11.624L131.272 12.872C133.64 9.608 135.816 6.088 137.8 2.31199L143.848 4.232H169V9.41599H143.848V6.92L142.216 9.224C141.384 10.568 140.488 11.88 139.528 13.16L141.928 12.776C142.12 14.504 142.344 16.232 142.6 17.96C142.92 19.688 143.144 20.936 143.272 21.704C143.784 24.648 144.104 26.664 144.232 27.752L138.856 28.52L138.664 26.888L137.224 27.176L136.84 44.456H127.624L127.912 28.424L123.496 28.904L122.728 30.344L126.376 30.248V33.32C126.376 37.032 126.184 40.68 125.8 44.264C125.288 44.2 124.776 44.136 124.264 44.072C123.816 44.008 123.272 43.976 122.632 43.976L122.344 45.512H188.584V58.568H145.96L145.768 59.528ZM169.384 10.952L171.88 5.576L173.128 6.72799C174.28 4.936 175.176 3.24 175.816 1.64L183.304 3.752C180.936 7.336 179.176 9.928 178.024 11.528L179.176 12.872C181.544 9.736 183.752 6.216 185.8 2.31199L191.944 5.576L186.76 13.256L189.832 12.776C190.408 17.576 191.048 21.832 191.752 25.544L192.136 27.752L186.76 28.52L186.568 26.888L185.128 27.176L184.744 44.456H175.528L175.816 28.424C175.176 28.488 172.904 28.712 169 29.096C169 25.832 168.808 23.08 168.424 20.84L172.936 20.648L174.28 19.208C173 17.672 171.432 16.04 169.576 14.312V16.616H143.464V10.952H169.384ZM184.84 16.136L182.152 20.36C183.048 20.36 184.136 20.296 185.416 20.168L184.84 16.136ZM134.44 20.36L137.512 20.168C137.448 19.464 137.288 18.344 137.032 16.808L134.44 20.36ZM145.288 18.344H167.464V23.624H145.288V18.344ZM167.464 30.344H145.288V25.16H167.464V30.344ZM138.472 43.976C138.28 38.28 138.184 33.608 138.184 29.96L143.08 29.672C143.08 35.432 143.144 40.008 143.272 43.4C142.44 43.592 140.84 43.784 138.472 43.976ZM190.888 29.672C190.888 32.232 190.952 34.44 191.08 36.296C191.208 38.088 191.432 40.424 191.752 43.304C188.68 43.688 186.888 43.912 186.376 43.976C186.184 38.28 186.088 33.608 186.088 29.96L190.888 29.672ZM169.192 43.88C169.64 39.784 169.864 35.272 169.864 30.344L174.28 30.248V33.32C174.28 37.032 174.088 40.68 173.704 44.264C171.144 44.008 169.64 43.88 169.192 43.88ZM115.72 42.44L120.904 43.304C121.352 41.064 121.64 39.112 121.768 37.448C121.896 35.784 121.96 33.832 121.96 31.592L115.72 42.44ZM168.136 44.456H144.616V31.976H168.136V44.456ZM158.92 37.256H153.832V39.56H158.92V37.256ZM143.944 65.672L143.56 66.728C149.384 66.92 156.392 67.016 164.584 67.016C165.992 67.016 166.952 66.952 167.464 66.824C168.04 66.632 168.36 66.248 168.424 65.672H143.944ZM287.064 5.86399C287.256 13.992 287.352 21.928 287.352 29.672C287.352 37.288 287.256 44.616 287.064 51.656C286.936 56.968 286.04 61.416 284.376 65C282.712 68.584 279.032 71.656 273.336 74.216C267.704 76.776 259.256 78.344 247.992 78.92C247.992 75.464 247.448 71.944 246.36 68.36C245.336 64.776 243.832 61.512 241.848 58.568V74.216H218.232V75.656H199.32V8.744H211.416L212.376 3.56H230.616L229.56 8.744H241.848V21.512C243.32 19.272 244.344 16.744 244.92 13.928C245.56 11.112 245.912 7.688 245.976 3.65599H265.56V5.86399H287.064ZM263.16 23.72C262.072 28.072 260.92 31.592 259.704 34.28C262.264 38.056 264.728 42.536 267.096 47.72C267.288 43.368 267.384 39.08 267.384 34.856L267.288 23.72H263.16ZM223.032 32.936V25.16H218.232V32.936H223.032ZM241.848 57.416C249.272 57.288 254.648 57.032 257.976 56.648C261.304 56.264 263.608 55.592 264.888 54.632C266.168 53.608 266.872 52.008 267 49.832L252.504 56.456C251.224 53 249.592 49.384 247.608 45.608C245.624 41.832 243.8 38.792 242.136 36.488L247.512 33.992C246.04 31.88 244.152 29.672 241.848 27.368V57.416ZM218.232 48.584V56.84H223.032V48.584H218.232ZM384.968 69.224C384.968 71.08 384.488 72.584 383.528 73.736C382.568 74.888 380.68 75.784 377.864 76.424C375.112 77.064 371.112 77.384 365.864 77.384C365.736 76.36 365.672 75.592 365.672 75.08C365.352 71.56 364.936 68.584 364.424 66.152C363.976 63.656 363.176 61.384 362.024 59.336C362.408 59.4 362.92 59.432 363.56 59.432C364.392 59.432 364.936 59.304 365.192 59.048C365.512 58.728 365.672 58.248 365.672 57.608L365.576 51.752H358.76V52.136C358.76 57.704 358.536 62.504 358.088 66.536C357.64 70.568 356.808 74.312 355.592 77.768C348.808 75.016 341.704 73.384 334.28 72.872L334.568 72.296H315.848V75.272H296.84V5.86399H336.872V66.44C337.576 64.328 338.088 62.408 338.408 60.68C338.728 58.952 339.048 56.68 339.368 53.864C339.816 50.024 340.04 44.456 340.04 37.16C340.04 33.768 339.912 25.544 339.656 12.488L339.464 4.712H384.68L384.968 69.224ZM365.384 23.432L365.288 19.112H358.76V23.432H365.384ZM319.688 32.168V21.704H315.848V32.168H319.688ZM358.76 39.848H365.48V35.336H358.76V39.848ZM315.848 45.032V55.976H319.688V45.032H315.848ZM486.52 54.44C483.832 58.28 481.88 61.992 480.664 65.576C479.448 69.096 478.584 73.096 478.072 77.576C464.12 75.272 451.352 69.448 439.768 60.104C439.64 60.168 439.448 60.328 439.192 60.584C434.648 65 429.112 68.584 422.584 71.336C416.056 74.024 408.504 76.104 399.928 77.576C399.416 73.096 398.552 69.096 397.336 65.576C396.12 61.992 394.168 58.28 391.48 54.44C397.624 54.504 402.584 54.216 406.36 53.576C410.2 52.872 413.72 51.816 416.92 50.408C419.032 49.512 420.952 48.488 422.68 47.336H397.432V29.096H426.424V25.448H396.472V6.248H481.528V25.448H451.576V29.096H480.568V47.336H455.704C457.368 48.36 460.28 49.736 464.44 51.464C467.192 52.552 470.264 53.352 473.656 53.864C477.048 54.312 481.336 54.504 486.52 54.44ZM548.907 6.824H557.355V3.368H571.851V6.824H580.875V3.368H596.235V6.824H604.011V22.376H596.235V25.16H580.875V22.376H571.851V25.16H557.355V22.376H548.907V6.824ZM550.635 26.696H602.187V77.48H585.579V76.136H567.339V77.48H550.635V26.696ZM570.699 43.592V40.232H567.339V43.592H570.699ZM582.123 43.592H585.579V40.232H582.123V43.592ZM570.699 57.32H567.339V61.256H570.699V57.32ZM582.123 61.256H585.579V57.32H582.123V61.256ZM529.611 74.888H514.923V5.47999H546.795V72.776H529.611V74.888ZM531.915 54.632V21.128H529.611V54.632H531.915ZM700.763 46.088H678.491V57.896C678.491 58.28 679.195 58.472 680.603 58.472C681.819 58.472 682.427 58.056 682.427 57.224C682.427 54.984 682.331 53.16 682.139 51.752C682.011 50.28 681.915 49.416 681.851 49.16C686.651 49.992 692.795 50.664 700.283 51.176V54.056C700.283 58.92 700.187 62.536 699.995 64.904C699.803 67.272 699.355 69.288 698.651 70.952C697.883 72.68 696.859 73.96 695.579 74.792C694.299 75.56 693.051 76.072 691.835 76.328C690.683 76.52 689.019 76.68 686.843 76.808C683.771 76.936 681.179 77 679.067 77L670.715 76.904C670.139 76.84 669.243 76.808 668.027 76.808C664.059 76.68 661.211 75.88 659.483 74.408C657.819 72.872 656.987 70.376 656.987 66.92V54.92C652.379 61.128 647.451 65.992 642.203 69.512C637.019 73.032 630.715 75.848 623.291 77.96C622.523 77.192 621.979 76.584 621.659 76.136C618.715 73 616.027 70.312 613.595 68.072C611.227 65.832 608.347 63.528 604.955 61.16C612.187 59.944 618.459 58.216 623.771 55.976C629.083 53.736 633.819 50.44 637.979 46.088H611.195V28.424H615.323C613.531 25.16 611.675 22.408 609.755 20.168C613.019 18.504 615.611 16.264 617.531 13.448C619.515 10.568 620.539 7.368 620.603 3.848L642.299 4.04L641.723 7.304H645.275V3.464H667.259V7.304H696.923V24.008H667.259V28.424H700.763V46.088ZM633.659 24.008C632.571 25.48 631.291 26.952 629.819 28.424H645.275V24.008H633.659ZM643.259 46.088L656.987 52.424V46.088H643.259ZM800.395 19.688H782.059V21.992H799.051V63.368C799.051 67.336 798.731 70.216 798.091 72.008C797.451 73.736 796.075 74.952 793.963 75.656C791.851 76.296 788.395 76.616 783.595 76.616C783.467 73.8 783.211 71.24 782.827 68.936C782.507 66.568 781.963 64.072 781.195 61.448L782.827 61.64C783.147 61.64 783.339 61.576 783.403 61.448C783.531 61.32 783.595 61.064 783.595 60.68V59.432H779.659V74.984H767.083V59.432H762.955V75.848H747.499V72.872C736.171 75.112 724.139 76.712 711.403 77.672C710.955 74.984 710.283 72.104 709.387 69.032C708.555 65.96 707.659 63.336 706.699 61.16C712.971 61.16 717.579 61.096 720.523 60.968V45.032H710.443V34.952H720.523V33.32H713.323V30.44L709.291 33.032C708.779 29.32 708.203 26.152 707.563 23.528C706.923 20.84 705.963 18.184 704.683 15.56C713.067 14.152 718.987 10.216 722.443 3.752H737.899C737.259 5.416 736.651 6.76 736.075 7.784C739.019 9.448 742.891 10.856 747.691 12.008V6.056H764.875V3.17599H782.059V6.056H782.923L785.323 0.967995C787.691 2.12 790.283 3.816 793.099 6.056H800.395V19.688ZM729.547 17.48C728.203 18.888 726.827 20.264 725.419 21.608H734.347C732.427 20.136 730.827 18.76 729.547 17.48ZM764.875 19.688H748.747C748.619 20.2 748.363 20.968 747.979 21.992H764.875V19.688ZM736.267 59.624C738.507 59.368 742.251 58.856 747.499 58.088V23.624C747.307 24.264 746.763 26.28 745.867 29.672L744.427 28.712V33.32H736.267V34.952H745.963V45.032H736.267V59.624ZM767.083 32.936H762.955V36.296H767.083V32.936ZM779.659 36.296H783.595V32.936H779.659V36.296ZM762.955 46.184V49.448H767.083V46.184H762.955ZM779.659 46.184V49.448H783.595V46.184H779.659ZM709.675 46.856L718.123 46.376L719.083 58.856L711.115 59.432L709.675 46.856ZM737.611 57.416L738.571 46.376L746.155 46.664L745.387 57.704L737.611 57.416ZM898.587 30.536C897.371 37.768 896.539 44.456 896.091 50.6L894.363 50.024V77.96H877.851V77H868.347V77.96H851.835V51.56L849.819 52.04C849.627 45.896 849.051 40.52 848.091 35.912V36.2H844.731V38.792H847.995V53.576H844.731V56.744L848.283 56.072L848.475 72.968C839.131 74.312 831.707 75.336 826.203 76.04C820.763 76.68 814.939 77.224 808.731 77.672C808.283 74.024 807.771 70.92 807.195 68.36C806.683 65.736 805.851 63.144 804.699 60.584C806.939 60.584 808.603 60.552 809.691 60.488V38.6H826.203V59.432L828.411 59.144V36.2H808.923V5.768H848.091V14.312C851.355 13.16 854.139 11.784 856.443 10.184C858.747 8.51999 860.635 6.27999 862.107 3.464H876.987L876.315 5.47999L892.539 5.384L897.243 17.768C894.747 21.992 891.675 26.024 888.027 29.864C891.035 30.44 894.555 30.664 898.587 30.536ZM848.091 32.936C853.211 32.936 858.011 31.976 862.491 30.056L860.091 27.08C857.211 29.192 854.395 30.888 851.643 32.168C851.131 27.816 849.947 22.12 848.091 15.08V32.936ZM831.291 18.92H825.723V23.528H831.291V18.92ZM873.243 22.76C874.715 21.224 875.803 19.976 876.507 19.016H869.979C871.003 20.424 872.091 21.672 873.243 22.76ZM882.747 45.416C880.251 44.2 877.627 42.696 874.875 40.904C872.379 42.632 869.915 44.136 867.483 45.416H882.747ZM868.347 58.088V62.792H877.851V58.088H868.347Z" fill="url(#paint0_linear_4732_1972)"/>
<defs>
<linearGradient id="paint0_linear_4732_1972" x1="12.9158" y1="46.7264" x2="881.728" y2="46.7264" gradientUnits="userSpaceOnUse">
<stop stop-color="#E6793B"/>
<stop offset="1" stop-color="#FF4185"/>
</linearGradient>
</defs>
</svg>
