<svg width="458" height="108" viewBox="0 0 458 108" fill="none" xmlns="http://www.w3.org/2000/svg">
<g filter="url(#filter0_d_4819_2276)">
<path d="M12.5 24C12.5 15.1634 19.6634 8 28.5 8H429.5C438.337 8 445.5 15.1634 445.5 24V76C445.5 84.8366 438.337 92 429.5 92H28.5C19.6634 92 12.5 84.8366 12.5 76V24Z" fill="white" fill-opacity="0.9" shape-rendering="crispEdges"/>
<rect x="28.5" y="25" width="50" height="50" rx="25" fill="url(#paint0_linear_4819_2276)"/>
<path d="M53.3395 62.3182C51.5062 62.3182 49.8774 62.0038 48.4531 61.375C47.0365 60.7386 45.9228 59.8636 45.1122 58.75C44.3016 57.6364 43.8925 56.3561 43.8849 54.9091H50.2486C50.2562 55.3561 50.3925 55.7576 50.6577 56.1136C50.9304 56.4621 51.3016 56.7348 51.7713 56.9318C52.241 57.1288 52.7789 57.2273 53.3849 57.2273C53.9683 57.2273 54.4834 57.125 54.9304 56.9205C55.3774 56.7083 55.7259 56.4167 55.9759 56.0455C56.2259 55.6742 56.3471 55.25 56.3395 54.7727C56.3471 54.303 56.2031 53.8864 55.9077 53.5227C55.6198 53.1591 55.2145 52.875 54.6918 52.6705C54.169 52.4659 53.5668 52.3636 52.8849 52.3636H50.5213V48H52.8849C53.5137 48 54.0668 47.8977 54.544 47.6932C55.0289 47.4886 55.4039 47.2045 55.669 46.8409C55.9418 46.4773 56.0743 46.0606 56.0668 45.5909C56.0743 45.1364 55.9645 44.7348 55.7372 44.3864C55.5099 44.0379 55.1918 43.7652 54.7827 43.5682C54.3812 43.3712 53.9152 43.2727 53.3849 43.2727C52.8092 43.2727 52.294 43.375 51.8395 43.5795C51.3925 43.7841 51.0402 44.0682 50.7827 44.4318C50.5251 44.7955 50.3925 45.2121 50.3849 45.6818H44.3395C44.3471 44.2576 44.7372 43 45.5099 41.9091C46.2902 40.8182 47.3584 39.9621 48.7145 39.3409C50.0705 38.7197 51.6274 38.4091 53.3849 38.4091C55.1046 38.4091 56.6236 38.7008 57.9418 39.2841C59.2675 39.8674 60.3016 40.6705 61.044 41.6932C61.794 42.7083 62.1652 43.8712 62.1577 45.1818C62.1728 46.4848 61.7259 47.553 60.8168 48.3864C59.9152 49.2197 58.7713 49.7121 57.3849 49.8636V50.0455C59.2637 50.25 60.6766 50.8258 61.6236 51.7727C62.5706 52.7121 63.0365 53.8939 63.0213 55.3182C63.0289 56.6818 62.6198 57.8902 61.794 58.9432C60.9759 59.9962 59.8357 60.822 58.3736 61.4205C56.919 62.0189 55.241 62.3182 53.3395 62.3182Z" fill="white"/>
<path d="M109.42 35.92H132.86V40.32H109.42V35.92ZM112.7 54.56H129.38V58.64H112.7V54.56ZM112.62 62.64H129.3V66.88H112.62V62.64ZM114.14 31.48H118.7V44.88H114.14V31.48ZM123.82 31.48H128.42V44.88H123.82V31.48ZM118.86 48.6H123.26V64.72H118.86V48.6ZM110.54 46.52H131.78V68.36H127.14V50.72H114.98V68.6H110.54V46.52ZM99.26 34.52H108.34V58.52H99.26V53.88H103.98V39.12H99.26V34.52ZM96.82 34.52H101.06V61.76H96.82V34.52ZM136.82 38.04H170.74V42.76H136.82V38.04ZM135.5 62.24H171.94V67.04H135.5V62.24ZM151.1 31.04H156.14V40.68H151.1V31.04ZM160.14 44.16L165.66 45.12C164.1 51.72 161.94 59.04 160.06 63.76L155.38 62.72C157.26 57.84 159.22 50.08 160.14 44.16ZM141.98 45.48L146.54 44.28C148.46 49.24 149.94 55.44 150.34 59.68L145.42 61C145.14 56.84 143.7 50.36 141.98 45.48ZM191.54 43.68H198.58V47.64H191.54V43.68ZM196.46 43.68H200.46V64.4C200.46 66.24 200.14 67.28 199.02 67.92C197.94 68.56 196.42 68.64 194.34 68.64C194.22 67.52 193.74 65.88 193.26 64.84C194.38 64.88 195.58 64.88 195.94 64.88C196.34 64.88 196.46 64.76 196.46 64.36V43.68ZM201.34 43.68H208.42V47.64H201.34V43.68ZM206.18 43.68H210.34V64.28C210.34 66.12 210.06 67.24 208.9 67.92C207.74 68.56 206.18 68.64 204.06 68.64C203.9 67.52 203.42 65.8 202.94 64.72C204.06 64.76 205.26 64.76 205.66 64.76C206.06 64.76 206.18 64.64 206.18 64.2V43.68ZM201.22 35.44C199.46 38.4 196.26 42.16 192.82 44.52C192.34 43.24 191.3 41.48 190.5 40.44C193.94 38.32 197.3 34.24 198.9 31.08H203.26C205.46 34.48 208.78 38.08 212.1 39.88C211.22 41.04 210.22 42.8 209.5 44.2C206.46 42.08 203.1 38.36 201.22 35.44ZM180.38 31.04H185.02V42.68H180.38V31.04ZM180.38 52.96H185.02V68.6H180.38V52.96ZM179.5 50.04V51.84H185.9V50.04H179.5ZM179.5 44.84V46.64H185.9V44.84H179.5ZM175.38 41.24H190.22V55.48H175.38V41.24ZM174.5 34.72H190.9V38.92H174.5V34.72ZM174.1 57.76H191.14V62.04H174.1V57.76ZM194.14 48.4L197.58 49.36C196.38 51.68 194.3 54 192.38 55.48C191.74 54.84 190.42 53.68 189.62 53.16C191.46 51.92 193.14 50.2 194.14 48.4ZM194.34 55.72L197.86 56.72C196.18 59.96 193.42 63.04 190.7 65C190.1 64.32 188.7 63.08 187.9 62.52C190.54 60.88 192.94 58.4 194.34 55.72ZM203.62 48.4L207.1 49.36C205.98 51.64 204.06 53.92 202.18 55.4C201.58 54.8 200.14 53.68 199.3 53.2C201.1 51.96 202.7 50.2 203.62 48.4ZM204.02 55.72L207.54 56.68C206.1 59.88 203.66 63 201.26 64.96C200.62 64.32 199.22 63.08 198.42 62.56C200.74 60.88 202.82 58.36 204.02 55.72ZM223.086 35.9091H230.671L238.683 55.4545H239.024L247.035 35.9091H254.62V65H248.654V46.0653H248.413L240.885 64.858H236.822L229.294 45.9943H229.052V65H223.086V35.9091ZM258.774 65V43.1818H264.825V65H258.774ZM261.814 40.3693C260.914 40.3693 260.143 40.071 259.499 39.4744C258.864 38.8684 258.547 38.1439 258.547 37.3011C258.547 36.4678 258.864 35.7528 259.499 35.1562C260.143 34.5502 260.914 34.2472 261.814 34.2472C262.714 34.2472 263.481 34.5502 264.115 35.1562C264.759 35.7528 265.081 36.4678 265.081 37.3011C265.081 38.1439 264.759 38.8684 264.115 39.4744C263.481 40.071 262.714 40.3693 261.814 40.3693ZM275.094 65.4119C273.702 65.4119 272.462 65.1705 271.373 64.6875C270.284 64.1951 269.422 63.4706 268.787 62.5142C268.162 61.5483 267.85 60.3456 267.85 58.9062C267.85 57.6941 268.072 56.6761 268.517 55.8523C268.963 55.0284 269.569 54.3655 270.336 53.8636C271.103 53.3617 271.974 52.983 272.949 52.7273C273.934 52.4716 274.966 52.2917 276.046 52.1875C277.315 52.0549 278.338 51.9318 279.114 51.8182C279.891 51.6951 280.454 51.5152 280.804 51.2784C281.155 51.0417 281.33 50.6913 281.33 50.2273V50.142C281.33 49.2424 281.046 48.5464 280.478 48.054C279.919 47.5616 279.124 47.3153 278.091 47.3153C277.002 47.3153 276.136 47.5568 275.492 48.0398C274.848 48.5133 274.422 49.1098 274.213 49.8295L268.617 49.375C268.901 48.0492 269.46 46.9034 270.293 45.9375C271.126 44.9621 272.201 44.214 273.517 43.6932C274.843 43.1629 276.377 42.8977 278.12 42.8977C279.332 42.8977 280.492 43.0398 281.6 43.3239C282.717 43.608 283.707 44.0483 284.569 44.6449C285.44 45.2415 286.126 46.0085 286.628 46.946C287.13 47.8741 287.381 48.9867 287.381 50.2841V65H281.642V61.9744H281.472C281.122 62.6562 280.653 63.2576 280.066 63.7784C279.479 64.2898 278.773 64.6922 277.949 64.9858C277.125 65.2699 276.174 65.4119 275.094 65.4119ZM276.827 61.2358C277.717 61.2358 278.503 61.0606 279.185 60.7102C279.867 60.3504 280.402 59.8674 280.79 59.2614C281.178 58.6553 281.373 57.9687 281.373 57.2017V54.8864C281.183 55.0095 280.923 55.1231 280.591 55.2273C280.269 55.322 279.905 55.4119 279.498 55.4972C279.09 55.5729 278.683 55.6439 278.276 55.7102C277.869 55.767 277.499 55.8191 277.168 55.8665C276.458 55.9706 275.838 56.1364 275.307 56.3636C274.777 56.5909 274.365 56.8987 274.071 57.2869C273.778 57.6657 273.631 58.1392 273.631 58.7074C273.631 59.5312 273.929 60.161 274.526 60.5966C275.132 61.0227 275.899 61.2358 276.827 61.2358ZM301.134 65.4261C298.927 65.4261 297.019 64.9574 295.409 64.0199C293.809 63.0729 292.573 61.7566 291.702 60.071C290.831 58.3759 290.395 56.411 290.395 54.1761C290.395 51.9223 290.831 49.9527 291.702 48.267C292.573 46.572 293.809 45.2557 295.409 44.3182C297.019 43.3712 298.927 42.8977 301.134 42.8977C303.34 42.8977 305.244 43.3712 306.844 44.3182C308.454 45.2557 309.694 46.572 310.565 48.267C311.437 49.9527 311.872 51.9223 311.872 54.1761C311.872 56.411 311.437 58.3759 310.565 60.071C309.694 61.7566 308.454 63.0729 306.844 64.0199C305.244 64.9574 303.34 65.4261 301.134 65.4261ZM301.162 60.7386C302.166 60.7386 303.004 60.4545 303.676 59.8864C304.349 59.3087 304.855 58.5227 305.196 57.5284C305.547 56.5341 305.722 55.4025 305.722 54.1335C305.722 52.8646 305.547 51.733 305.196 50.7386C304.855 49.7443 304.349 48.9583 303.676 48.3807C303.004 47.803 302.166 47.5142 301.162 47.5142C300.149 47.5142 299.297 47.803 298.605 48.3807C297.923 48.9583 297.407 49.7443 297.057 50.7386C296.716 51.733 296.546 52.8646 296.546 54.1335C296.546 55.4025 296.716 56.5341 297.057 57.5284C297.407 58.5227 297.923 59.3087 298.605 59.8864C299.297 60.4545 300.149 60.7386 301.162 60.7386ZM323.578 65V35.9091H329.729V59.929H342.201V65H323.578ZM345.36 65V43.1818H351.411V65H345.36ZM348.4 40.3693C347.5 40.3693 346.728 40.071 346.085 39.4744C345.45 38.8684 345.133 38.1439 345.133 37.3011C345.133 36.4678 345.45 35.7528 346.085 35.1562C346.728 34.5502 347.5 34.2472 348.4 34.2472C349.299 34.2472 350.067 34.5502 350.701 35.1562C351.345 35.7528 351.667 36.4678 351.667 37.3011C351.667 38.1439 351.345 38.8684 350.701 39.4744C350.067 40.071 349.299 40.3693 348.4 40.3693ZM355.572 65V35.9091H361.723V47.9119H374.209V35.9091H380.345V65H374.209V52.983H361.723V65H355.572ZM390.724 65.4119C389.332 65.4119 388.091 65.1705 387.002 64.6875C385.913 64.1951 385.052 63.4706 384.417 62.5142C383.792 61.5483 383.48 60.3456 383.48 58.9062C383.48 57.6941 383.702 56.6761 384.147 55.8523C384.592 55.0284 385.198 54.3655 385.965 53.8636C386.732 53.3617 387.604 52.983 388.579 52.7273C389.564 52.4716 390.596 52.2917 391.676 52.1875C392.945 52.0549 393.967 51.9318 394.744 51.8182C395.52 51.6951 396.084 51.5152 396.434 51.2784C396.784 51.0417 396.96 50.6913 396.96 50.2273V50.142C396.96 49.2424 396.676 48.5464 396.107 48.054C395.549 47.5616 394.753 47.3153 393.721 47.3153C392.632 47.3153 391.766 47.5568 391.122 48.0398C390.478 48.5133 390.052 49.1098 389.843 49.8295L384.247 49.375C384.531 48.0492 385.089 46.9034 385.923 45.9375C386.756 44.9621 387.831 44.214 389.147 43.6932C390.473 43.1629 392.007 42.8977 393.749 42.8977C394.962 42.8977 396.122 43.0398 397.23 43.3239C398.347 43.608 399.337 44.0483 400.198 44.6449C401.07 45.2415 401.756 46.0085 402.258 46.946C402.76 47.8741 403.011 48.9867 403.011 50.2841V65H397.272V61.9744H397.102C396.751 62.6562 396.283 63.2576 395.695 63.7784C395.108 64.2898 394.403 64.6922 393.579 64.9858C392.755 65.2699 391.803 65.4119 390.724 65.4119ZM392.457 61.2358C393.347 61.2358 394.133 61.0606 394.815 60.7102C395.497 60.3504 396.032 59.8674 396.42 59.2614C396.808 58.6553 397.002 57.9687 397.002 57.2017V54.8864C396.813 55.0095 396.552 55.1231 396.221 55.2273C395.899 55.322 395.534 55.4119 395.127 55.4972C394.72 55.5729 394.313 55.6439 393.906 55.7102C393.498 55.767 393.129 55.8191 392.798 55.8665C392.087 55.9706 391.467 56.1364 390.937 56.3636C390.407 56.5909 389.995 56.8987 389.701 57.2869C389.408 57.6657 389.261 58.1392 389.261 58.7074C389.261 59.5312 389.559 60.161 390.156 60.5966C390.762 61.0227 391.529 61.2358 392.457 61.2358ZM412.957 52.3864V65H406.905V43.1818H412.672V47.0312H412.928C413.411 45.7623 414.221 44.7585 415.357 44.0199C416.493 43.2718 417.871 42.8977 419.491 42.8977C421.006 42.8977 422.327 43.2292 423.454 43.892C424.581 44.5549 425.457 45.5019 426.082 46.733C426.707 47.9545 427.019 49.4129 427.019 51.108V65H420.968V52.1875C420.977 50.8523 420.636 49.8106 419.945 49.0625C419.254 48.3049 418.302 47.9261 417.09 47.9261C416.276 47.9261 415.556 48.1013 414.931 48.4517C414.315 48.8021 413.832 49.3134 413.482 49.9858C413.141 50.6487 412.966 51.4489 412.957 52.3864Z" fill="#DA7D4A"/>
<path d="M13 24C13 15.4396 19.9396 8.5 28.5 8.5H429.5C438.06 8.5 445 15.4396 445 24V76C445 84.5604 438.06 91.5 429.5 91.5H28.5C19.9396 91.5 13 84.5604 13 76V24Z" stroke="white" shape-rendering="crispEdges"/>
</g>
<defs>
<filter id="filter0_d_4819_2276" x="0.5" y="0" width="457" height="108" filterUnits="userSpaceOnUse" color-interpolation-filters="sRGB">
<feFlood flood-opacity="0" result="BackgroundImageFix"/>
<feColorMatrix in="SourceAlpha" type="matrix" values="0 0 0 0 0 0 0 0 0 0 0 0 0 0 0 0 0 0 127 0" result="hardAlpha"/>
<feOffset dy="4"/>
<feGaussianBlur stdDeviation="6"/>
<feComposite in2="hardAlpha" operator="out"/>
<feColorMatrix type="matrix" values="0 0 0 0 0.639216 0 0 0 0 0.705882 0 0 0 0 0.796078 0 0 0 0.2 0"/>
<feBlend mode="normal" in2="BackgroundImageFix" result="effect1_dropShadow_4819_2276"/>
<feBlend mode="normal" in="SourceGraphic" in2="effect1_dropShadow_4819_2276" result="shape"/>
</filter>
<linearGradient id="paint0_linear_4819_2276" x1="29.2714" y1="55.5576" x2="77.4317" y2="55.5576" gradientUnits="userSpaceOnUse">
<stop stop-color="#E6793B"/>
<stop offset="1" stop-color="#FF4185"/>
</linearGradient>
</defs>
</svg>
