<svg width="295" height="35" viewBox="0 0 295 35" fill="none" xmlns="http://www.w3.org/2000/svg">
<rect y="1.65039" width="32" height="32" rx="16" fill="url(#paint0_linear_4829_1581)"/>
<path d="M15.8973 25.354C14.7239 25.354 13.6815 25.1528 12.77 24.7504C11.8633 24.3431 11.1506 23.7831 10.6318 23.0704C10.113 22.3577 9.85121 21.5383 9.84636 20.6122H13.9191C13.9239 20.8983 14.0112 21.1552 14.1809 21.3831C14.3555 21.6061 14.593 21.7807 14.8936 21.9068C15.1942 22.0328 15.5385 22.0958 15.9264 22.0958C16.2997 22.0958 16.6294 22.0304 16.9155 21.8995C17.2015 21.7637 17.4245 21.5771 17.5845 21.3395C17.7445 21.1019 17.8221 20.8304 17.8173 20.5249C17.8221 20.2243 17.73 19.9577 17.5409 19.7249C17.3567 19.4922 17.0973 19.3104 16.7627 19.1795C16.4282 19.0486 16.0427 18.9831 15.6064 18.9831H14.0936V16.1904H15.6064C16.0088 16.1904 16.3627 16.1249 16.6682 15.994C16.9785 15.8631 17.2185 15.6813 17.3882 15.4486C17.5627 15.2158 17.6476 14.9492 17.6427 14.6486C17.6476 14.3577 17.5773 14.1007 17.4318 13.8777C17.2864 13.6546 17.0827 13.4801 16.8209 13.354C16.5639 13.228 16.2658 13.1649 15.9264 13.1649C15.5579 13.1649 15.2282 13.2304 14.9373 13.3613C14.6512 13.4922 14.4258 13.674 14.2609 13.9068C14.0961 14.1395 14.0112 14.4061 14.0064 14.7068H10.1373C10.1421 13.7952 10.3918 12.9904 10.8864 12.2922C11.3858 11.594 12.0694 11.0461 12.9373 10.6486C13.8052 10.251 14.8015 10.0522 15.9264 10.0522C17.027 10.0522 17.9991 10.2389 18.8427 10.6122C19.6912 10.9855 20.353 11.4995 20.8282 12.154C21.3082 12.8037 21.5458 13.548 21.5409 14.3868C21.5506 15.2207 21.2645 15.9043 20.6827 16.4377C20.1058 16.971 19.3736 17.2861 18.4864 17.3831V17.4995C19.6888 17.6304 20.593 17.9989 21.1991 18.6049C21.8052 19.2061 22.1033 19.9625 22.0936 20.874C22.0985 21.7468 21.8367 22.5201 21.3082 23.194C20.7845 23.868 20.0548 24.3965 19.1191 24.7795C18.1882 25.1625 17.1142 25.354 15.8973 25.354Z" fill="white"/>
<path d="M50.5358 7.29439H66.9438V10.3744H50.5358V7.29439ZM52.8318 20.3424H64.5078V23.1984H52.8318V20.3424ZM52.7758 25.9984H64.4518V28.9664H52.7758V25.9984ZM53.8398 4.18639H57.0318V13.5664H53.8398V4.18639ZM60.6158 4.18639H63.8358V13.5664H60.6158V4.18639ZM57.1438 16.1704H60.2238V27.4544H57.1438V16.1704ZM51.3198 14.7144H66.1878V30.0024H62.9398V17.6544H54.4278V30.1704H51.3198V14.7144ZM43.4238 6.31439H49.7798V23.1144H43.4238V19.8664H46.7278V9.53439H43.4238V6.31439ZM41.7158 6.31439H44.6838V25.3824H41.7158V6.31439ZM70.2758 8.77839H94.0198V12.0824H70.2758V8.77839ZM69.3518 25.7184H94.8598V29.0784H69.3518V25.7184ZM80.2718 3.87839H83.7998V10.6264H80.2718V3.87839ZM86.5998 13.0624L90.4638 13.7344C89.3718 18.3544 87.8598 23.4784 86.5438 26.7824L83.2678 26.0544C84.5838 22.6384 85.9558 17.2064 86.5998 13.0624ZM73.8878 13.9864L77.0798 13.1464C78.4238 16.6184 79.4598 20.9584 79.7398 23.9264L76.2958 24.8504C76.0998 21.9384 75.0918 17.4024 73.8878 13.9864ZM109.14 12.7264H114.068V15.4984H109.14V12.7264ZM112.584 12.7264H115.384V27.2304C115.384 28.5184 115.16 29.2464 114.376 29.6944C113.62 30.1424 112.556 30.1984 111.1 30.1984C111.016 29.4144 110.68 28.2664 110.344 27.5384C111.128 27.5664 111.968 27.5664 112.22 27.5664C112.5 27.5664 112.584 27.4824 112.584 27.2024V12.7264ZM116 12.7264H120.956V15.4984H116V12.7264ZM119.388 12.7264H122.3V27.1464C122.3 28.4344 122.104 29.2184 121.292 29.6944C120.48 30.1424 119.388 30.1984 117.904 30.1984C117.792 29.4144 117.456 28.2104 117.12 27.4544C117.904 27.4824 118.744 27.4824 119.024 27.4824C119.304 27.4824 119.388 27.3984 119.388 27.0904V12.7264ZM115.916 6.95839C114.684 9.03039 112.444 11.6624 110.036 13.3144C109.7 12.4184 108.972 11.1864 108.412 10.4584C110.82 8.97439 113.172 6.11839 114.292 3.90639H117.344C118.884 6.28639 121.208 8.80639 123.532 10.0664C122.916 10.8784 122.216 12.1104 121.712 13.0904C119.584 11.6064 117.232 9.00239 115.916 6.95839ZM101.328 3.87839H104.576V12.0264H101.328V3.87839ZM101.328 19.2224H104.576V30.1704H101.328V19.2224ZM100.712 17.1784V18.4384H105.192V17.1784H100.712ZM100.712 13.5384V14.7984H105.192V13.5384H100.712ZM97.8278 11.0184H108.216V20.9864H97.8278V11.0184ZM97.2118 6.45439H108.692V9.39439H97.2118V6.45439ZM96.9318 22.5824H108.86V25.5784H96.9318V22.5824ZM110.96 16.0304L113.368 16.7024C112.528 18.3264 111.072 19.9504 109.728 20.9864C109.28 20.5384 108.356 19.7264 107.796 19.3624C109.084 18.4944 110.26 17.2904 110.96 16.0304ZM111.1 21.1544L113.564 21.8544C112.388 24.1224 110.456 26.2784 108.552 27.6504C108.132 27.1744 107.152 26.3064 106.592 25.9144C108.44 24.7664 110.12 23.0304 111.1 21.1544ZM117.596 16.0304L120.032 16.7024C119.248 18.2984 117.904 19.8944 116.588 20.9304C116.168 20.5104 115.16 19.7264 114.572 19.3904C115.832 18.5224 116.952 17.2904 117.596 16.0304ZM117.876 21.1544L120.34 21.8264C119.332 24.0664 117.624 26.2504 115.944 27.6224C115.496 27.1744 114.516 26.3064 113.956 25.9424C115.58 24.7664 117.036 23.0024 117.876 21.1544ZM132.342 7.28675H137.652L143.26 20.9686H143.498L149.106 7.28675H154.416V27.6504H150.24V14.3961H150.071L144.801 27.551H141.957L136.687 14.3464H136.518V27.6504H132.342V7.28675ZM157.884 27.6504V12.3777H162.119V27.6504H157.884ZM160.012 10.4089C159.382 10.4089 158.842 10.2001 158.391 9.78249C157.947 9.35825 157.725 8.85115 157.725 8.26119C157.725 7.67785 157.947 7.17738 158.391 6.75977C158.842 6.33552 159.382 6.1234 160.012 6.1234C160.641 6.1234 161.178 6.33552 161.622 6.75977C162.073 7.17738 162.298 7.67785 162.298 8.26119C162.298 8.85115 162.073 9.35825 161.622 9.78249C161.178 10.2001 160.641 10.4089 160.012 10.4089ZM169.868 27.9387C168.893 27.9387 168.025 27.7697 167.263 27.4316C166.5 27.0869 165.897 26.5798 165.453 25.9103C165.015 25.2342 164.797 24.3923 164.797 23.3848C164.797 22.5363 164.952 21.8237 165.264 21.247C165.576 20.6703 166 20.2063 166.537 19.8549C167.074 19.5036 167.684 19.2385 168.366 19.0595C169.056 18.8805 169.778 18.7546 170.534 18.6816C171.422 18.5888 172.138 18.5027 172.682 18.4231C173.225 18.3369 173.62 18.211 173.865 18.0453C174.11 17.8796 174.233 17.6343 174.233 17.3095V17.2498C174.233 16.6201 174.034 16.1329 173.636 15.7882C173.245 15.4435 172.688 15.2711 171.966 15.2711C171.203 15.2711 170.597 15.4402 170.146 15.7782C169.695 16.1097 169.397 16.5273 169.251 17.0311L165.334 16.7129C165.532 15.7849 165.924 14.9828 166.507 14.3066C167.09 13.6239 167.843 13.1002 168.764 12.7356C169.692 12.3644 170.766 12.1788 171.986 12.1788C172.834 12.1788 173.646 12.2782 174.422 12.4771C175.204 12.676 175.897 12.9842 176.5 13.4018C177.11 13.8194 177.59 14.3564 177.942 15.0126C178.293 15.6622 178.469 16.4411 178.469 17.3493V27.6504H174.452V25.5325H174.332C174.087 26.0098 173.759 26.4307 173.348 26.7953C172.937 27.1532 172.443 27.435 171.866 27.6404C171.29 27.8393 170.623 27.9387 169.868 27.9387ZM171.081 25.0154C171.704 25.0154 172.254 24.8928 172.731 24.6475C173.209 24.3957 173.583 24.0576 173.855 23.6333C174.127 23.2091 174.263 22.7285 174.263 22.1916V20.5708C174.13 20.657 173.948 20.7366 173.716 20.8095C173.49 20.8758 173.235 20.9387 172.95 20.9984C172.665 21.0514 172.38 21.1011 172.095 21.1475C171.81 21.1873 171.551 21.2238 171.319 21.2569C170.822 21.3298 170.388 21.4458 170.017 21.6049C169.646 21.764 169.357 21.9795 169.152 22.2512C168.946 22.5164 168.844 22.8478 168.844 23.2456C168.844 23.8223 169.052 24.2631 169.47 24.568C169.894 24.8663 170.431 25.0154 171.081 25.0154ZM188.655 27.9487C187.111 27.9487 185.775 27.6206 184.648 26.9643C183.528 26.3014 182.663 25.38 182.053 24.2001C181.443 23.0136 181.138 21.6381 181.138 20.0737C181.138 18.496 181.443 17.1172 182.053 15.9373C182.663 14.7508 183.528 13.8294 184.648 13.1731C185.775 12.5102 187.111 12.1788 188.655 12.1788C190.2 12.1788 191.532 12.5102 192.653 13.1731C193.779 13.8294 194.648 14.7508 195.258 15.9373C195.867 17.1172 196.172 18.496 196.172 20.0737C196.172 21.6381 195.867 23.0136 195.258 24.2001C194.648 25.38 193.779 26.3014 192.653 26.9643C191.532 27.6206 190.2 27.9487 188.655 27.9487ZM188.675 24.6674C189.378 24.6674 189.965 24.4686 190.435 24.0708C190.906 23.6665 191.26 23.1163 191.499 22.4203C191.744 21.7243 191.867 20.9321 191.867 20.0439C191.867 19.1556 191.744 18.3635 191.499 17.6674C191.26 16.9714 190.906 16.4212 190.435 16.0169C189.965 15.6125 189.378 15.4103 188.675 15.4103C187.966 15.4103 187.369 15.6125 186.885 16.0169C186.408 16.4212 186.047 16.9714 185.802 17.6674C185.563 18.3635 185.444 19.1556 185.444 20.0439C185.444 20.9321 185.563 21.7243 185.802 22.4203C186.047 23.1163 186.408 23.6665 186.885 24.0708C187.369 24.4686 187.966 24.6674 188.675 24.6674ZM205.487 27.6504V7.28675H209.792V24.1007H218.522V27.6504H205.487ZM221.294 27.6504V12.3777H225.53V27.6504H221.294ZM223.422 10.4089C222.792 10.4089 222.252 10.2001 221.801 9.78249C221.357 9.35825 221.135 8.85115 221.135 8.26119C221.135 7.67785 221.357 7.17738 221.801 6.75977C222.252 6.33552 222.792 6.1234 223.422 6.1234C224.051 6.1234 224.588 6.33552 225.032 6.75977C225.483 7.17738 225.709 7.67785 225.709 8.26119C225.709 8.85115 225.483 9.35825 225.032 9.78249C224.588 10.2001 224.051 10.4089 223.422 10.4089ZM238.438 17.6078V20.9686H229.151V17.6078H238.438ZM242.127 27.6504V7.28675H246.433V15.6887H255.173V7.28675H259.468V27.6504H255.173V19.2385H246.433V27.6504H242.127ZM267.294 27.9387C266.319 27.9387 265.451 27.7697 264.688 27.4316C263.926 27.0869 263.323 26.5798 262.879 25.9103C262.441 25.2342 262.222 24.3923 262.222 23.3848C262.222 22.5363 262.378 21.8237 262.69 21.247C263.001 20.6703 263.426 20.2063 263.963 19.8549C264.499 19.5036 265.109 19.2385 265.792 19.0595C266.481 18.8805 267.204 18.7546 267.96 18.6816C268.848 18.5888 269.564 18.5027 270.107 18.4231C270.651 18.3369 271.045 18.211 271.291 18.0453C271.536 17.8796 271.659 17.6343 271.659 17.3095V17.2498C271.659 16.6201 271.46 16.1329 271.062 15.7882C270.671 15.4435 270.114 15.2711 269.392 15.2711C268.629 15.2711 268.023 15.4402 267.572 15.7782C267.121 16.1097 266.823 16.5273 266.677 17.0311L262.759 16.7129C262.958 15.7849 263.349 14.9828 263.933 14.3066C264.516 13.6239 265.268 13.1002 266.19 12.7356C267.118 12.3644 268.192 12.1788 269.411 12.1788C270.26 12.1788 271.072 12.2782 271.847 12.4771C272.63 12.676 273.322 12.9842 273.926 13.4018C274.535 13.8194 275.016 14.3564 275.367 15.0126C275.719 15.6622 275.894 16.4411 275.894 17.3493V27.6504H271.877V25.5325H271.758C271.513 26.0098 271.185 26.4307 270.774 26.7953C270.363 27.1532 269.869 27.435 269.292 27.6404C268.715 27.8393 268.049 27.9387 267.294 27.9387ZM268.507 25.0154C269.13 25.0154 269.68 24.8928 270.157 24.6475C270.634 24.3957 271.009 24.0576 271.281 23.6333C271.552 23.2091 271.688 22.7285 271.688 22.1916V20.5708C271.556 20.657 271.374 20.7366 271.142 20.8095C270.916 20.8758 270.661 20.9387 270.376 20.9984C270.091 21.0514 269.806 21.1011 269.521 21.1475C269.236 21.1873 268.977 21.2238 268.745 21.2569C268.248 21.3298 267.814 21.4458 267.443 21.6049C267.071 21.764 266.783 21.9795 266.578 22.2512C266.372 22.5164 266.269 22.8478 266.269 23.2456C266.269 23.8223 266.478 24.2631 266.896 24.568C267.32 24.8663 267.857 25.0154 268.507 25.0154ZM283.416 18.8208V27.6504H279.181V12.3777H283.218V15.0723H283.396C283.735 14.184 284.301 13.4814 285.097 12.9643C285.892 12.4406 286.857 12.1788 287.99 12.1788C289.051 12.1788 289.976 12.4108 290.764 12.8748C291.553 13.3388 292.166 14.0017 292.604 14.8635C293.041 15.7186 293.26 16.7394 293.26 17.926V27.6504H289.024V18.6816C289.031 17.747 288.792 17.0178 288.308 16.4941C287.825 15.9638 287.158 15.6987 286.31 15.6987C285.74 15.6987 285.236 15.8213 284.798 16.0666C284.368 16.3118 284.03 16.6698 283.784 17.1404C283.546 17.6045 283.423 18.1646 283.416 18.8208Z" fill="#DA7D4A"/>
<defs>
<linearGradient id="paint0_linear_4829_1581" x1="0.493685" y1="21.2073" x2="31.3163" y2="21.2073" gradientUnits="userSpaceOnUse">
<stop stop-color="#E6793B"/>
<stop offset="1" stop-color="#FF4185"/>
</linearGradient>
</defs>
</svg>
