<svg width="253" height="58" viewBox="0 0 253 58" fill="none" xmlns="http://www.w3.org/2000/svg">
<path d="M0.5 16C0.5 7.16345 7.66344 0 16.5 0H236.5C245.337 0 252.5 7.16344 252.5 16V42C252.5 50.8366 245.337 58 236.5 58H16.5C7.66344 58 0.5 50.8366 0.5 42V16Z" fill="#334155"/>
<path d="M18.1506 39V35.8977L25.3991 29.1861C26.0156 28.5895 26.5327 28.0526 26.9503 27.5753C27.3745 27.098 27.696 26.6307 27.9148 26.1733C28.1335 25.7093 28.2429 25.2088 28.2429 24.6719C28.2429 24.0753 28.107 23.5616 27.8352 23.1307C27.5634 22.6932 27.1922 22.3584 26.7216 22.1264C26.2509 21.8878 25.7173 21.7685 25.1207 21.7685C24.4976 21.7685 23.9541 21.8944 23.4901 22.1463C23.026 22.3982 22.6681 22.7595 22.4162 23.2301C22.1643 23.7008 22.0384 24.2609 22.0384 24.9105H17.9517C17.9517 23.5781 18.2533 22.4214 18.8565 21.4403C19.4598 20.4593 20.3049 19.7003 21.392 19.1634C22.4792 18.6264 23.732 18.358 25.1506 18.358C26.6089 18.358 27.8783 18.6165 28.9588 19.1335C30.0459 19.6439 30.8911 20.3532 31.4943 21.2614C32.0975 22.1695 32.3991 23.2102 32.3991 24.3835C32.3991 25.1525 32.2467 25.9115 31.9418 26.6605C31.6435 27.4096 31.1098 28.2415 30.3409 29.1562C29.572 30.0644 28.4882 31.1548 27.0895 32.4276L24.1165 35.3409V35.4801H32.6676V39H18.1506ZM43.7717 39.4474C42.0614 39.4408 40.5898 39.0199 39.3569 38.1847C38.1306 37.3494 37.186 36.1397 36.5231 34.5554C35.8668 32.9711 35.542 31.0653 35.5487 28.8381C35.5487 26.6174 35.8768 24.7249 36.533 23.1605C37.1959 21.5961 38.1405 20.4062 39.3668 19.5909C40.5998 18.7689 42.0681 18.358 43.7717 18.358C45.4753 18.358 46.9402 18.7689 48.1665 19.5909C49.3995 20.4129 50.3474 21.6061 51.0103 23.1705C51.6732 24.7282 52.0013 26.6174 51.9947 28.8381C51.9947 31.072 51.6632 32.9811 51.0004 34.5653C50.3441 36.1496 49.4028 37.3594 48.1765 38.1946C46.9502 39.0298 45.4819 39.4474 43.7717 39.4474ZM43.7717 35.8778C44.9383 35.8778 45.8697 35.2912 46.5657 34.1179C47.2617 32.9446 47.6064 31.1847 47.5998 28.8381C47.5998 27.2936 47.4407 26.0076 47.1225 24.9801C46.811 23.9527 46.3668 23.1804 45.7901 22.6634C45.2201 22.1463 44.5472 21.8878 43.7717 21.8878C42.6116 21.8878 41.6836 22.4678 40.9876 23.6278C40.2915 24.7879 39.9402 26.5246 39.9336 28.8381C39.9336 30.4025 40.0894 31.7083 40.4009 32.7557C40.7191 33.7964 41.1665 34.5786 41.7433 35.1023C42.32 35.6193 42.9961 35.8778 43.7717 35.8778ZM55.0646 39V35.8977L62.3132 29.1861C62.9297 28.5895 63.4467 28.0526 63.8643 27.5753C64.2886 27.098 64.6101 26.6307 64.8288 26.1733C65.0476 25.7093 65.157 25.2088 65.157 24.6719C65.157 24.0753 65.0211 23.5616 64.7493 23.1307C64.4775 22.6932 64.1063 22.3584 63.6357 22.1264C63.165 21.8878 62.6314 21.7685 62.0348 21.7685C61.4117 21.7685 60.8681 21.8944 60.4041 22.1463C59.9401 22.3982 59.5821 22.7595 59.3303 23.2301C59.0784 23.7008 58.9524 24.2609 58.9524 24.9105H54.8658C54.8658 23.5781 55.1674 22.4214 55.7706 21.4403C56.3738 20.4593 57.219 19.7003 58.3061 19.1634C59.3932 18.6264 60.6461 18.358 62.0646 18.358C63.523 18.358 64.7924 18.6165 65.8729 19.1335C66.96 19.6439 67.8052 20.3532 68.4084 21.2614C69.0116 22.1695 69.3132 23.2102 69.3132 24.3835C69.3132 25.1525 69.1607 25.9115 68.8558 26.6605C68.5575 27.4096 68.0239 28.2415 67.255 29.1562C66.486 30.0644 65.4022 31.1548 64.0036 32.4276L61.0305 35.3409V35.4801H69.5817V39H55.0646ZM71.9556 35.4205V32.0298L80.457 18.6364H83.3803V23.3295H81.6502L76.2908 31.8111V31.9702H88.3718V35.4205H71.9556ZM81.7298 39V34.3864L81.8093 32.8849V18.6364H85.8462V39H81.7298ZM98.2543 20.128H121.998V23.432H98.2543V20.128ZM97.3303 37.068H122.838V40.428H97.3303V37.068ZM108.25 15.228H111.778V21.976H108.25V15.228ZM114.578 24.412L118.442 25.084C117.35 29.704 115.838 34.828 114.522 38.132L111.246 37.404C112.562 33.988 113.934 28.556 114.578 24.412ZM101.866 25.336L105.058 24.496C106.402 27.968 107.438 32.308 107.718 35.276L104.274 36.2C104.078 33.288 103.07 28.752 101.866 25.336ZM125.246 30.292H150.894V33.036H125.246V30.292ZM134.486 27.66L137.79 28.528C135.998 31.468 133.618 35.024 131.938 37.264L128.69 36.284C130.426 34.044 132.862 30.432 134.486 27.66ZM142.214 31.412L145.518 32.252C142.774 38.804 137.118 40.708 126.954 41.548C126.73 40.568 126.198 39.364 125.638 38.608C134.85 38.188 140.03 36.704 142.214 31.412ZM130.706 36.508L132.442 34.072C138.854 35.332 145.798 37.236 149.998 38.748L147.954 41.548C143.894 39.924 137.37 37.936 130.706 36.508ZM125.554 20.828H150.446V23.544H125.554V20.828ZM136.334 17.692H139.666V28.388H136.334V17.692ZM135.074 21.528L137.762 22.62C135.27 25.84 131.098 28.416 126.786 29.704C126.366 28.92 125.442 27.716 124.77 27.1C128.886 26.12 133.002 24.02 135.074 21.528ZM140.842 21.556C142.942 23.936 147.114 25.924 151.23 26.848C150.502 27.52 149.55 28.78 149.102 29.62C144.818 28.388 140.674 25.784 138.154 22.648L140.842 21.556ZM145.63 15.228L148.038 17.58C142.634 18.756 134.794 19.204 128.27 19.232C128.186 18.504 127.85 17.328 127.57 16.656C133.926 16.6 141.402 16.124 145.63 15.228ZM161.366 15.116L164.922 15.592C163.886 17.356 162.682 19.064 161.73 20.212L158.902 19.652C159.798 18.364 160.834 16.488 161.366 15.116ZM167.946 16.824L170.438 15.648C172.482 17.048 175.142 19.176 176.486 20.66L173.798 21.976C172.594 20.548 170.046 18.308 167.946 16.824ZM159.714 23.432L162.066 22.76C162.766 23.964 163.522 25.532 163.774 26.596L161.31 27.324C161.086 26.288 160.414 24.636 159.714 23.432ZM155.29 18.56C159.77 18.448 166.714 18.196 173.182 17.944L173.07 20.436C166.742 20.772 159.994 21.08 155.458 21.248L155.29 18.56ZM156.886 21.472L159.91 22.172C158.93 23.824 157.894 25.616 157.054 26.764L154.898 26.092C155.626 24.804 156.466 22.844 156.886 21.472ZM153.302 25.392C155.43 25.28 158.426 25.028 161.45 24.748L161.506 26.96C158.678 27.268 155.85 27.576 153.582 27.8L153.302 25.392ZM173.966 23.572L176.318 22.62C177.438 23.936 178.586 25.756 179.062 27.016L176.57 28.08C176.15 26.848 175.058 24.972 173.966 23.572ZM170.606 21.332L173.686 22.032C172.846 23.628 171.978 25.42 171.25 26.54L169.038 25.868C169.626 24.58 170.298 22.704 170.606 21.332ZM168.618 25.168C170.802 25.084 173.91 24.916 177.074 24.72L177.102 26.708C174.218 27.016 171.334 27.324 168.982 27.548L168.618 25.168ZM166.574 28.164L168.954 29.368C166.602 31.076 163.018 32.476 160.106 33.316C159.686 32.728 158.958 31.86 158.314 31.3C161.058 30.684 164.67 29.452 166.574 28.164ZM169.542 30.712L172.062 31.972C169.01 34.52 164.11 36.256 159.49 37.236C159.126 36.536 158.454 35.528 157.81 34.856C162.122 34.156 167.022 32.7 169.542 30.712ZM172.594 33.512L175.338 34.8C171.614 38.72 165.146 40.596 157.922 41.548C157.642 40.736 157.026 39.588 156.41 38.832C163.158 38.216 169.486 36.676 172.594 33.512ZM165.93 25.42C163.606 28.444 158.93 31.384 154.198 33.008C153.918 32.308 153.246 31.244 152.714 30.6C157.67 29.116 162.122 26.008 164.334 22.9H167.274C170.326 26.68 174.974 29.2 179.51 30.264C178.866 30.992 178.278 32.028 177.858 32.812C173.49 31.44 168.506 28.64 165.93 25.42ZM187.126 26.148V36.452H183.99V29.256H181.078V26.148H187.126ZM187.126 35.164C188.218 37.068 190.262 37.88 193.146 38.02C196.618 38.16 203.506 38.076 207.482 37.768C207.118 38.496 206.614 39.98 206.474 40.904C202.89 41.072 196.674 41.128 193.174 40.988C189.758 40.848 187.462 40.008 185.782 37.824C184.718 38.944 183.598 40.008 182.282 41.268L180.686 38.048C181.806 37.264 183.15 36.2 184.326 35.164H187.126ZM180.91 17.552L183.542 15.872C185.026 17.216 186.762 19.12 187.518 20.492L184.662 22.368C184.018 21.024 182.338 18.98 180.91 17.552ZM188.834 26.68H205.998V29.116H188.834V26.68ZM187.994 30.992H206.866V33.484H187.994V30.992ZM192.558 25.196H195.722V32.196H192.558V25.196ZM198.97 25.196H202.162V32.196H198.97V25.196ZM189.59 19.372H193.678V18.196H188.358V16.096H196.506V21.5H189.59V19.372ZM188.75 19.372H191.522V22.088C191.522 22.676 191.634 22.788 192.362 22.788C192.67 22.788 194.098 22.788 194.518 22.788C195.078 22.788 195.19 22.62 195.302 21.696C195.806 22.06 196.87 22.424 197.626 22.564C197.346 24.468 196.59 25 194.882 25C194.35 25 192.474 25 191.942 25C189.45 25 188.75 24.356 188.75 22.116V19.372ZM198.802 19.372H202.918V18.196H197.458V16.096H205.774V21.5H198.802V19.372ZM197.962 19.372H200.734V22.088C200.734 22.676 200.874 22.788 201.602 22.788C201.938 22.788 203.422 22.788 203.842 22.788C204.43 22.788 204.542 22.62 204.654 21.668C205.158 22.032 206.222 22.368 206.978 22.536C206.698 24.468 205.942 25 204.206 25C203.674 25 201.714 25 201.182 25C198.662 25 197.962 24.356 197.962 22.088V19.372ZM198.494 34.66L200.958 33.288C202.974 34.212 205.438 35.556 206.838 36.508L203.366 37.768C202.33 36.872 200.342 35.612 198.494 34.66ZM193.594 33.288L196.534 34.324C195.078 35.668 192.726 36.956 190.794 37.74C190.262 37.18 189.058 36.172 188.358 35.724C190.318 35.136 192.39 34.24 193.594 33.288ZM219.718 15.9H223.554C223.302 20.604 222.938 34.268 211.486 41.296C210.898 40.428 209.806 39.392 208.658 38.608C219.914 32.364 219.522 19.568 219.718 15.9ZM223.442 16.628C223.526 19.064 224.114 33.036 235.594 38.412C234.53 39.224 233.522 40.344 233.018 41.268C220.95 35.276 220.418 19.848 220.194 16.964L223.442 16.628Z" fill="white"/>
</svg>
