<svg width="48" height="49" viewBox="0 0 48 49" fill="none" xmlns="http://www.w3.org/2000/svg">
<rect y="0.650391" width="48" height="48" rx="24" fill="white"/>
<rect x="10" y="10.6504" width="28" height="28" rx="6" fill="url(#paint0_radial_4829_1587)"/>
<rect x="10" y="10.6504" width="28" height="28" rx="6" fill="#DA7D4A"/>
<path d="M31 19.1504C31 19.9788 30.3284 20.6504 29.5 20.6504C28.6716 20.6504 28 19.9788 28 19.1504C28 18.322 28.6716 17.6504 29.5 17.6504C30.3284 17.6504 31 18.322 31 19.1504Z" fill="white"/>
<path fill-rule="evenodd" clip-rule="evenodd" d="M24 29.6504C26.7614 29.6504 29 27.4118 29 24.6504C29 21.889 26.7614 19.6504 24 19.6504C21.2386 19.6504 19 21.889 19 24.6504C19 27.4118 21.2386 29.6504 24 29.6504ZM24 27.6504C25.6569 27.6504 27 26.3072 27 24.6504C27 22.9935 25.6569 21.6504 24 21.6504C22.3431 21.6504 21 22.9935 21 24.6504C21 26.3072 22.3431 27.6504 24 27.6504Z" fill="white"/>
<path fill-rule="evenodd" clip-rule="evenodd" d="M14 24.2504C14 20.8901 14 19.2099 14.654 17.9264C15.2292 16.7975 16.1471 15.8796 17.2761 15.3044C18.5595 14.6504 20.2397 14.6504 23.6 14.6504H24.4C27.7603 14.6504 29.4405 14.6504 30.7239 15.3044C31.8529 15.8796 32.7708 16.7975 33.346 17.9264C34 19.2099 34 20.8901 34 24.2504V25.0504C34 28.4107 34 30.0909 33.346 31.3743C32.7708 32.5033 31.8529 33.4212 30.7239 33.9964C29.4405 34.6504 27.7603 34.6504 24.4 34.6504H23.6C20.2397 34.6504 18.5595 34.6504 17.2761 33.9964C16.1471 33.4212 15.2292 32.5033 14.654 31.3743C14 30.0909 14 28.4107 14 25.0504V24.2504ZM23.6 16.6504H24.4C26.1132 16.6504 27.2777 16.6519 28.1779 16.7255C29.0548 16.7971 29.5032 16.927 29.816 17.0864C30.5686 17.4699 31.1805 18.0818 31.564 18.8344C31.7234 19.1472 31.8533 19.5956 31.9249 20.4725C31.9984 21.3726 32 22.5372 32 24.2504V25.0504C32 26.7635 31.9984 27.9281 31.9249 28.8283C31.8533 29.7051 31.7234 30.1536 31.564 30.4664C31.1805 31.219 30.5686 31.8309 29.816 32.2144C29.5032 32.3738 29.0548 32.5036 28.1779 32.5753C27.2777 32.6488 26.1132 32.6504 24.4 32.6504H23.6C21.8868 32.6504 20.7223 32.6488 19.8221 32.5753C18.9452 32.5036 18.4968 32.3738 18.184 32.2144C17.4314 31.8309 16.8195 31.219 16.436 30.4664C16.2766 30.1536 16.1467 29.7051 16.0751 28.8283C16.0016 27.9281 16 26.7635 16 25.0504V24.2504C16 22.5372 16.0016 21.3726 16.0751 20.4725C16.1467 19.5956 16.2766 19.1472 16.436 18.8344C16.8195 18.0818 17.4314 17.4699 18.184 17.0864C18.4968 16.927 18.9452 16.7971 19.8221 16.7255C20.7223 16.6519 21.8868 16.6504 23.6 16.6504Z" fill="white"/>
<defs>
<radialGradient id="paint0_radial_4829_1587" cx="0" cy="0" r="1" gradientUnits="userSpaceOnUse" gradientTransform="translate(20 31.6504) rotate(-55.3758) scale(25.5196)">
<stop stop-color="#B13589"/>
<stop offset="0.79309" stop-color="#C62F94"/>
<stop offset="1" stop-color="#8A3AC8"/>
</radialGradient>
</defs>
</svg>
