<svg width="154" height="36" viewBox="0 0 154 36" fill="none" xmlns="http://www.w3.org/2000/svg">
<path d="M0 8.18445C0 3.76617 3.58172 0.184448 8 0.184448H146C150.418 0.184448 154 3.76617 154 8.18445V27.1844C154 31.6027 150.418 35.1844 146 35.1844H8C3.58172 35.1844 0 31.6027 0 27.1844V8.18445Z" fill="#334155"/>
<path d="M13.0114 23.1844V11.5481H15.4716V21.156H20.4602V23.1844H13.0114ZM24.392 23.1844H21.7557L25.7727 11.5481H28.9432L32.9545 23.1844H30.3182L27.4034 14.2072H27.3125L24.392 23.1844ZM24.2273 18.6106H30.4545V20.531H24.2273V18.6106ZM32.4901 13.5765V11.5481H42.0469V13.5765H38.4844V23.1844H36.0526V13.5765H32.4901ZM43.6207 23.1844V11.5481H51.4616V13.5765H46.081V16.3492H51.0582V18.3776H46.081V21.156H51.4844V23.1844H43.6207ZM59.7301 14.8947C59.6847 14.4363 59.4896 14.0803 59.1449 13.8265C58.8002 13.5727 58.3324 13.4458 57.7415 13.4458C57.34 13.4458 57.0009 13.5026 56.7244 13.6163C56.4479 13.7261 56.2358 13.8795 56.0881 14.0765C55.9441 14.2735 55.8722 14.4969 55.8722 14.7469C55.8646 14.9553 55.9081 15.1371 56.0028 15.2924C56.1013 15.4477 56.2358 15.5822 56.4062 15.6958C56.5767 15.8057 56.7737 15.9023 56.9972 15.9856C57.2206 16.0651 57.4593 16.1333 57.7131 16.1901L58.7585 16.4401C59.2661 16.5538 59.732 16.7053 60.1562 16.8947C60.5805 17.0841 60.9479 17.317 61.2585 17.5935C61.5691 17.8701 61.8097 18.1958 61.9801 18.5708C62.1544 18.9458 62.2434 19.3757 62.2472 19.8606C62.2434 20.5727 62.0616 21.1901 61.7017 21.7129C61.3456 22.2318 60.8305 22.6352 60.1562 22.9231C59.4858 23.2072 58.6771 23.3492 57.7301 23.3492C56.7907 23.3492 55.9725 23.2053 55.2756 22.9174C54.5824 22.6295 54.0407 22.2034 53.6506 21.639C53.2642 21.0708 53.0616 20.3682 53.0426 19.531H55.4233C55.4498 19.9212 55.5616 20.2469 55.7585 20.5083C55.9593 20.7659 56.2263 20.961 56.5597 21.0935C56.8968 21.2223 57.2775 21.2867 57.7017 21.2867C58.1184 21.2867 58.4801 21.2261 58.7869 21.1049C59.0975 20.9837 59.3381 20.8151 59.5085 20.5992C59.679 20.3833 59.7642 20.1352 59.7642 19.8549C59.7642 19.5935 59.6866 19.3738 59.5312 19.1958C59.3797 19.0178 59.1563 18.8663 58.8608 18.7413C58.5691 18.6163 58.2112 18.5026 57.7869 18.4004L56.5199 18.0822C55.5388 17.8435 54.7642 17.4704 54.196 16.9629C53.6278 16.4553 53.3456 15.7716 53.3494 14.9117C53.3456 14.2072 53.5331 13.5916 53.9119 13.0651C54.2945 12.5386 54.8191 12.1276 55.4858 11.8322C56.1525 11.5367 56.91 11.389 57.7585 11.389C58.6222 11.389 59.3759 11.5367 60.0199 11.8322C60.6676 12.1276 61.1714 12.5386 61.5312 13.0651C61.8911 13.5916 62.0767 14.2015 62.0881 14.8947H59.7301ZM63.4588 13.5765V11.5481H73.0156V13.5765H69.4531V23.1844H67.0213V13.5765H63.4588ZM78.2926 23.1844V11.5481H86.1335V13.5765H80.7528V16.3492H85.7301V18.3776H80.7528V21.156H86.1562V23.1844H78.2926ZM90.1918 11.5481L93.0043 20.389H93.1122L95.9304 11.5481H98.6577L94.6463 23.1844H91.4759L87.4588 11.5481H90.1918ZM100.058 23.1844V11.5481H107.899V13.5765H102.518V16.3492H107.496V18.3776H102.518V21.156H107.922V23.1844H100.058ZM119.588 11.5481V23.1844H117.463L112.401 15.8606H112.315V23.1844H109.855V11.5481H112.014L117.037 18.8663H117.139V11.5481H119.588ZM121.178 13.5765V11.5481H130.734V13.5765H127.172V23.1844H124.74V13.5765H121.178ZM138.621 14.8947C138.575 14.4363 138.38 14.0803 138.036 13.8265C137.691 13.5727 137.223 13.4458 136.632 13.4458C136.231 13.4458 135.892 13.5026 135.615 13.6163C135.339 13.7261 135.126 13.8795 134.979 14.0765C134.835 14.2735 134.763 14.4969 134.763 14.7469C134.755 14.9553 134.799 15.1371 134.893 15.2924C134.992 15.4477 135.126 15.5822 135.297 15.6958C135.467 15.8057 135.664 15.9023 135.888 15.9856C136.111 16.0651 136.35 16.1333 136.604 16.1901L137.649 16.4401C138.157 16.5538 138.623 16.7053 139.047 16.8947C139.471 17.0841 139.839 17.317 140.149 17.5935C140.46 17.8701 140.7 18.1958 140.871 18.5708C141.045 18.9458 141.134 19.3757 141.138 19.8606C141.134 20.5727 140.952 21.1901 140.592 21.7129C140.236 22.2318 139.721 22.6352 139.047 22.9231C138.376 23.2072 137.568 23.3492 136.621 23.3492C135.681 23.3492 134.863 23.2053 134.166 22.9174C133.473 22.6295 132.931 22.2034 132.541 21.639C132.155 21.0708 131.952 20.3682 131.933 19.531H134.314C134.34 19.9212 134.452 20.2469 134.649 20.5083C134.85 20.7659 135.117 20.961 135.45 21.0935C135.787 21.2223 136.168 21.2867 136.592 21.2867C137.009 21.2867 137.371 21.2261 137.678 21.1049C137.988 20.9837 138.229 20.8151 138.399 20.5992C138.57 20.3833 138.655 20.1352 138.655 19.8549C138.655 19.5935 138.577 19.3738 138.422 19.1958C138.27 19.0178 138.047 18.8663 137.751 18.7413C137.46 18.6163 137.102 18.5026 136.678 18.4004L135.411 18.0822C134.429 17.8435 133.655 17.4704 133.087 16.9629C132.518 16.4553 132.236 15.7716 132.24 14.9117C132.236 14.2072 132.424 13.5916 132.803 13.0651C133.185 12.5386 133.71 12.1276 134.376 11.8322C135.043 11.5367 135.801 11.389 136.649 11.389C137.513 11.389 138.267 11.5367 138.911 11.8322C139.558 12.1276 140.062 12.5386 140.422 13.0651C140.782 13.5916 140.967 14.2015 140.979 14.8947H138.621Z" fill="white"/>
</svg>
