<svg width="147" height="36" viewBox="0 0 147 36" fill="none" xmlns="http://www.w3.org/2000/svg">
<path d="M0.5 8.18457C0.5 3.76629 4.08172 0.18457 8.5 0.18457H138.5C142.918 0.18457 146.5 3.76629 146.5 8.18457V27.1846C146.5 31.6028 142.918 35.1846 138.5 35.1846H8.5C4.08173 35.1846 0.5 31.6028 0.5 27.1846V8.18457Z" fill="#334155"/>
<path d="M13.5114 23.1846V11.5482H18.1023C18.9848 11.5482 19.7367 11.7168 20.358 12.0539C20.9792 12.3872 21.4527 12.8512 21.7784 13.4459C22.108 14.0368 22.2727 14.7187 22.2727 15.4914C22.2727 16.2641 22.1061 16.9459 21.7727 17.5368C21.4394 18.1278 20.9564 18.588 20.3239 18.9175C19.6951 19.2471 18.9337 19.4118 18.0398 19.4118H15.1136V17.4403H17.642C18.1155 17.4403 18.5057 17.3588 18.8125 17.1959C19.1231 17.0293 19.3542 16.8001 19.5057 16.5084C19.661 16.213 19.7386 15.874 19.7386 15.4914C19.7386 15.105 19.661 14.7679 19.5057 14.48C19.3542 14.1884 19.1231 13.963 18.8125 13.8039C18.5019 13.641 18.108 13.5596 17.6307 13.5596H15.9716V23.1846H13.5114ZM34.5639 17.3664C34.5639 18.6353 34.3234 19.7149 33.8423 20.605C33.3651 21.4952 32.7135 22.1751 31.8878 22.6448C31.0658 23.1107 30.1416 23.3437 29.1151 23.3437C28.081 23.3437 27.1529 23.1088 26.331 22.6391C25.509 22.1694 24.8594 21.4895 24.3821 20.5993C23.9048 19.7092 23.6662 18.6315 23.6662 17.3664C23.6662 16.0974 23.9048 15.0179 24.3821 14.1278C24.8594 13.2376 25.509 12.5596 26.331 12.0937C27.1529 11.624 28.081 11.3891 29.1151 11.3891C30.1416 11.3891 31.0658 11.624 31.8878 12.0937C32.7135 12.5596 33.3651 13.2376 33.8423 14.1278C34.3234 15.0179 34.5639 16.0974 34.5639 17.3664ZM32.0696 17.3664C32.0696 16.5444 31.9465 15.8512 31.7003 15.2868C31.4579 14.7224 31.1151 14.2944 30.6719 14.0028C30.2287 13.7111 29.7098 13.5653 29.1151 13.5653C28.5204 13.5653 28.0014 13.7111 27.5582 14.0028C27.1151 14.2944 26.7704 14.7224 26.5241 15.2868C26.2817 15.8512 26.1605 16.5444 26.1605 17.3664C26.1605 18.1884 26.2817 18.8815 26.5241 19.4459C26.7704 20.0103 27.1151 20.4384 27.5582 20.73C28.0014 21.0217 28.5204 21.1675 29.1151 21.1675C29.7098 21.1675 30.2287 21.0217 30.6719 20.73C31.1151 20.4384 31.4579 20.0103 31.7003 19.4459C31.9465 18.8815 32.0696 18.1884 32.0696 17.3664ZM36.3864 23.1846V11.5482H38.8466V21.1562H43.8352V23.1846H36.3864ZM47.9247 11.5482V23.1846H45.4645V11.5482H47.9247ZM60.2159 15.6221H57.7273C57.6818 15.3001 57.589 15.0141 57.4489 14.7641C57.3087 14.5103 57.1288 14.2944 56.9091 14.1164C56.6894 13.9384 56.4356 13.802 56.1477 13.7073C55.8636 13.6126 55.5549 13.5653 55.2216 13.5653C54.6193 13.5653 54.0947 13.7149 53.6477 14.0141C53.2008 14.3096 52.8542 14.7414 52.608 15.3096C52.3617 15.874 52.2386 16.5596 52.2386 17.3664C52.2386 18.1959 52.3617 18.8929 52.608 19.4573C52.858 20.0217 53.2064 20.4478 53.6534 20.7357C54.1004 21.0236 54.6174 21.1675 55.2045 21.1675C55.5341 21.1675 55.839 21.124 56.1193 21.0368C56.4034 20.9497 56.6553 20.8228 56.875 20.6562C57.0947 20.4857 57.2765 20.2793 57.4205 20.0368C57.5682 19.7944 57.6705 19.5179 57.7273 19.2073L60.2159 19.2187C60.1515 19.7528 59.9905 20.2679 59.733 20.7641C59.4792 21.2565 59.1364 21.6978 58.7045 22.088C58.2765 22.4743 57.7652 22.7812 57.1705 23.0084C56.5795 23.2319 55.911 23.3437 55.1648 23.3437C54.1269 23.3437 53.1989 23.1088 52.3807 22.6391C51.5663 22.1694 50.9223 21.4895 50.4489 20.5993C49.9792 19.7092 49.7443 18.6315 49.7443 17.3664C49.7443 16.0974 49.983 15.0179 50.4602 14.1278C50.9375 13.2376 51.5852 12.5596 52.4034 12.0937C53.2216 11.624 54.142 11.3891 55.1648 11.3891C55.839 11.3891 56.464 11.4838 57.0398 11.6732C57.6193 11.8626 58.1326 12.1391 58.5795 12.5028C59.0265 12.8626 59.3902 13.3039 59.6705 13.8266C59.9545 14.3493 60.1364 14.9478 60.2159 15.6221ZM61.2983 11.5482H64.054L66.7074 16.5596H66.821L69.4744 11.5482H72.2301L67.9858 19.0709V23.1846H65.5426V19.0709L61.2983 11.5482ZM79.7372 11.5482V23.1846H77.277V11.5482H79.7372ZM88.0739 14.8948C88.0284 14.4365 87.8333 14.0804 87.4886 13.8266C87.1439 13.5728 86.6761 13.4459 86.0852 13.4459C85.6837 13.4459 85.3447 13.5028 85.0682 13.6164C84.7917 13.7262 84.5795 13.8796 84.4318 14.0766C84.2879 14.2736 84.2159 14.4971 84.2159 14.7471C84.2083 14.9554 84.2519 15.1372 84.3466 15.2925C84.4451 15.4478 84.5795 15.5823 84.75 15.6959C84.9205 15.8058 85.1174 15.9024 85.3409 15.9857C85.5644 16.0653 85.803 16.1334 86.0568 16.1903L87.1023 16.4403C87.6098 16.5539 88.0758 16.7054 88.5 16.8948C88.9242 17.0842 89.2917 17.3171 89.6023 17.5937C89.9129 17.8702 90.1534 18.1959 90.3239 18.5709C90.4981 18.9459 90.5871 19.3759 90.5909 19.8607C90.5871 20.5728 90.4053 21.1903 90.0455 21.713C89.6894 22.2319 89.1742 22.6353 88.5 22.9232C87.8295 23.2073 87.0208 23.3493 86.0739 23.3493C85.1345 23.3493 84.3163 23.2054 83.6193 22.9175C82.9261 22.6296 82.3845 22.2035 81.9943 21.6391C81.608 21.0709 81.4053 20.3683 81.3864 19.5312H83.767C83.7936 19.9213 83.9053 20.2471 84.1023 20.5084C84.303 20.766 84.5701 20.9611 84.9034 21.0937C85.2405 21.2224 85.6212 21.2868 86.0455 21.2868C86.4621 21.2868 86.8239 21.2262 87.1307 21.105C87.4413 20.9838 87.6818 20.8153 87.8523 20.5993C88.0227 20.3834 88.108 20.1353 88.108 19.855C88.108 19.5937 88.0303 19.374 87.875 19.1959C87.7235 19.0179 87.5 18.8664 87.2045 18.7414C86.9129 18.6164 86.5549 18.5028 86.1307 18.4005L84.8636 18.0823C83.8826 17.8437 83.108 17.4706 82.5398 16.963C81.9716 16.4554 81.6894 15.7717 81.6932 14.9118C81.6894 14.2073 81.8769 13.5918 82.2557 13.0653C82.6383 12.5387 83.1629 12.1278 83.8295 11.8323C84.4962 11.5368 85.2538 11.3891 86.1023 11.3891C86.9659 11.3891 87.7197 11.5368 88.3636 11.8323C89.0114 12.1278 89.5152 12.5387 89.875 13.0653C90.2348 13.5918 90.4205 14.2016 90.4318 14.8948H88.0739ZM98.5582 14.8948C98.5128 14.4365 98.3177 14.0804 97.973 13.8266C97.6283 13.5728 97.1605 13.4459 96.5696 13.4459C96.1681 13.4459 95.8291 13.5028 95.5526 13.6164C95.276 13.7262 95.0639 13.8796 94.9162 14.0766C94.7723 14.2736 94.7003 14.4971 94.7003 14.7471C94.6927 14.9554 94.7363 15.1372 94.831 15.2925C94.9295 15.4478 95.0639 15.5823 95.2344 15.6959C95.4048 15.8058 95.6018 15.9024 95.8253 15.9857C96.0488 16.0653 96.2874 16.1334 96.5412 16.1903L97.5866 16.4403C98.0942 16.5539 98.5601 16.7054 98.9844 16.8948C99.4086 17.0842 99.776 17.3171 100.087 17.5937C100.397 17.8702 100.638 18.1959 100.808 18.5709C100.982 18.9459 101.071 19.3759 101.075 19.8607C101.071 20.5728 100.89 21.1903 100.53 21.713C100.174 22.2319 99.6586 22.6353 98.9844 22.9232C98.3139 23.2073 97.5052 23.3493 96.5582 23.3493C95.6188 23.3493 94.8007 23.2054 94.1037 22.9175C93.4105 22.6296 92.8688 22.2035 92.4787 21.6391C92.0923 21.0709 91.8897 20.3683 91.8707 19.5312H94.2514C94.2779 19.9213 94.3897 20.2471 94.5866 20.5084C94.7874 20.766 95.0545 20.9611 95.3878 21.0937C95.7249 21.2224 96.1056 21.2868 96.5298 21.2868C96.9465 21.2868 97.3082 21.2262 97.6151 21.105C97.9257 20.9838 98.1662 20.8153 98.3366 20.5993C98.5071 20.3834 98.5923 20.1353 98.5923 19.855C98.5923 19.5937 98.5147 19.374 98.3594 19.1959C98.2079 19.0179 97.9844 18.8664 97.6889 18.7414C97.3973 18.6164 97.0393 18.5028 96.6151 18.4005L95.348 18.0823C94.367 17.8437 93.5923 17.4706 93.0241 16.963C92.456 16.4554 92.1738 15.7717 92.1776 14.9118C92.1738 14.2073 92.3613 13.5918 92.7401 13.0653C93.1226 12.5387 93.6473 12.1278 94.3139 11.8323C94.9806 11.5368 95.7382 11.3891 96.5866 11.3891C97.4503 11.3891 98.2041 11.5368 98.848 11.8323C99.4957 12.1278 99.9995 12.5387 100.359 13.0653C100.719 13.5918 100.905 14.2016 100.916 14.8948H98.5582ZM109.918 11.5482H112.378V19.105C112.378 19.9535 112.175 20.6959 111.77 21.3323C111.368 21.9687 110.806 22.4649 110.082 22.8209C109.359 23.1732 108.516 23.3493 107.554 23.3493C106.588 23.3493 105.743 23.1732 105.02 22.8209C104.296 22.4649 103.734 21.9687 103.332 21.3323C102.931 20.6959 102.73 19.9535 102.73 19.105V11.5482H105.19V18.8948C105.19 19.338 105.287 19.7319 105.48 20.0766C105.677 20.4213 105.954 20.6921 106.31 20.8891C106.666 21.0861 107.08 21.1846 107.554 21.1846C108.031 21.1846 108.446 21.0861 108.798 20.8891C109.154 20.6921 109.429 20.4213 109.622 20.0766C109.819 19.7319 109.918 19.338 109.918 18.8948V11.5482ZM114.402 23.1846V11.5482H122.243V13.5766H116.862V16.3493H121.839V18.3778H116.862V21.1562H122.266V23.1846H114.402ZM130.511 14.8948C130.466 14.4365 130.271 14.0804 129.926 13.8266C129.581 13.5728 129.114 13.4459 128.523 13.4459C128.121 13.4459 127.782 13.5028 127.506 13.6164C127.229 13.7262 127.017 13.8796 126.869 14.0766C126.725 14.2736 126.653 14.4971 126.653 14.7471C126.646 14.9554 126.689 15.1372 126.784 15.2925C126.883 15.4478 127.017 15.5823 127.188 15.6959C127.358 15.8058 127.555 15.9024 127.778 15.9857C128.002 16.0653 128.241 16.1334 128.494 16.1903L129.54 16.4403C130.047 16.5539 130.513 16.7054 130.938 16.8948C131.362 17.0842 131.729 17.3171 132.04 17.5937C132.35 17.8702 132.591 18.1959 132.761 18.5709C132.936 18.9459 133.025 19.3759 133.028 19.8607C133.025 20.5728 132.843 21.1903 132.483 21.713C132.127 22.2319 131.612 22.6353 130.938 22.9232C130.267 23.2073 129.458 23.3493 128.511 23.3493C127.572 23.3493 126.754 23.2054 126.057 22.9175C125.364 22.6296 124.822 22.2035 124.432 21.6391C124.045 21.0709 123.843 20.3683 123.824 19.5312H126.205C126.231 19.9213 126.343 20.2471 126.54 20.5084C126.741 20.766 127.008 20.9611 127.341 21.0937C127.678 21.2224 128.059 21.2868 128.483 21.2868C128.9 21.2868 129.261 21.2262 129.568 21.105C129.879 20.9838 130.119 20.8153 130.29 20.5993C130.46 20.3834 130.545 20.1353 130.545 19.855C130.545 19.5937 130.468 19.374 130.312 19.1959C130.161 19.0179 129.938 18.8664 129.642 18.7414C129.35 18.6164 128.992 18.5028 128.568 18.4005L127.301 18.0823C126.32 17.8437 125.545 17.4706 124.977 16.963C124.409 16.4554 124.127 15.7717 124.131 14.9118C124.127 14.2073 124.314 13.5918 124.693 13.0653C125.076 12.5387 125.6 12.1278 126.267 11.8323C126.934 11.5368 127.691 11.3891 128.54 11.3891C129.403 11.3891 130.157 11.5368 130.801 11.8323C131.449 12.1278 131.953 12.5387 132.312 13.0653C132.672 13.5918 132.858 14.2016 132.869 14.8948H130.511Z" fill="white"/>
</svg>
