<svg width="48" height="49" viewBox="0 0 48 49" fill="none" xmlns="http://www.w3.org/2000/svg">
<rect y="0.650391" width="48" height="48" rx="24" fill="white"/>
<path d="M10.2445 18.5915C10.373 16.6127 11.9639 15.062 13.9445 14.9638C16.8124 14.8218 20.9115 14.6504 24 14.6504C27.0885 14.6504 31.1876 14.8218 34.0555 14.9638C36.0361 15.062 37.627 16.6127 37.7555 18.5915C37.8786 20.4873 38 22.82 38 24.6504C38 26.4807 37.8786 28.8135 37.7555 30.7093C37.627 32.6881 36.0361 34.2388 34.0555 34.3369C31.1876 34.479 27.0885 34.6504 24 34.6504C20.9115 34.6504 16.8124 34.479 13.9445 34.3369C11.9639 34.2388 10.373 32.6881 10.2445 30.7093C10.1214 28.8135 10 26.4807 10 24.6504C10 22.82 10.1214 20.4873 10.2445 18.5915Z" fill="#DA7D4A"/>
<path d="M21 20.6504V28.6504L29 24.6504L21 20.6504Z" fill="white"/>
</svg>
